<svg xmlns="http://www.w3.org/2000/svg" width="210mm" height="297mm" viewBox="0 0 210 297"><g color="#000" font-weight="400" font-family="sans-serif" white-space="normal"><path style="line-height:normal;font-variant-ligatures:normal;font-variant-position:normal;font-variant-caps:normal;font-variant-numeric:normal;font-variant-alternates:normal;font-feature-settings:normal;text-indent:0;text-align:start;text-decoration-line:none;text-decoration-style:solid;text-decoration-color:#000;text-transform:none;text-orientation:mixed;shape-padding:0;isolation:auto;mix-blend-mode:normal" d="M57.418 83.557c-.283-.047-.592-.05-.814.172a.243.243 0 0 0-.063.226.31.31 0 0 0 .12.158c.098.08.229.142.355.205.125.063.245.125.304.172-.132.11-.306.13-.547.09-.257-.042-.548-.135-.832-.135h-.757c-.082 0-.275-.057-.446-.091a.583.583 0 0 0-.256-.012.242.242 0 0 0-.132.078c-.025.03-.028.068-.036.103a1.16 1.16 0 0 1-.511-.056v-.002l-.018-.022-.02-.015c-.01-.007-.01-.002-.019-.006a1.41 1.41 0 0 1 .063-.223c.03-.087.061-.172.07-.264a.23.23 0 0 0-.031-.158.22.22 0 0 0-.176-.088c-.228 0-.44.12-.604.284-.163.163-.283.377-.283.605 0 .072.053.152.111.182.032.016.06.014.09.017-.042.014-.066.04-.11.053-.25.08-.511.186-.73.37-.229-.003-.485-.054-.748-.083-.267-.03-.548-.033-.808.098a.25.25 0 0 0-.121.142.368.368 0 0 0-.012.159c.012.098.046.193.076.28.016.047.02.071.031.108-.185-.043-.387-.188-.605-.385a1.776 1.776 0 0 0-.395-.293.544.544 0 0 0-.486-.011.438.438 0 0 0-.232.383c-.005.146.037.294.08.443.043.15.09.3.113.432.022.131.018.238-.02.312-.016.033-.03.045-.052.055a.226.226 0 0 1-.104.013 1.779 1.779 0 0 1-.392-.097c-.152-.05-.312-.108-.473-.13-.16-.02-.34-.001-.467.126-.201.201-.319.354-.379.49a.399.399 0 0 0-.039.203c.007.068.042.13.088.172.092.084.203.102.315.111.086.008.171.005.254.002-.042.025-.039.028-.094.059a25.67 25.67 0 0 1-.865.45c-.225.112-.38.158-.463.165-.085.007-.081-.004-.09-.02a.33.33 0 0 1-.016-.148c.006-.075.024-.16.033-.242a.603.603 0 0 0 .004-.125.2.2 0 0 0-.07-.148c-.057-.047-.135-.045-.188-.03a.576.576 0 0 0-.156.08c-.23.153-.618.51-1.357 1.248a.343.343 0 0 0-.088.274c.007.087.032.164.055.236.022.072.04.14.045.184.003.037-.002.043-.01.053l-.06.025a15.665 15.665 0 0 0-1.048.502 5.572 5.572 0 0 0-.797.504c-.223.177-.404.353-.404.584 0 .072.055.154.113.183.03.016.058.012.086.016-.04.014-.065.04-.107.053-.278.09-.58.181-.809.41-.02.02-.042.04-.054.092a.154.154 0 0 0 .01.095.149.149 0 0 0 .058.065c.079.046.11.027.156.023.01 0 .026-.004.037-.006-.058.02-.093.057-.154.077-.278.089-.58.18-.808.41-.017.016-.033.03-.05.066a.17.17 0 0 0-.01.035c0 .007-.003.013-.003.022l.002.027.021.057.02.021.02.016c.051.035.077.028.1.027.021 0 .04-.004.06-.008.077-.014.174-.042.277-.068.094-.024.185-.042.248-.047a.433.433 0 0 1-.158.281 2.954 2.954 0 0 1-.496.303c-.19.1-.385.203-.543.336-.158.133-.283.312-.283.537 0 .146.094.256.193.33.099.075.213.13.316.182.104.052.198.103.239.14.02.02.025.03.025.032 0 .001.004-.003-.004.013-.097.194-.323.273-.615.348-.292.075-.633.135-.871.373a.661.661 0 0 0-.174.473c0 .171.05.346.174.47.092.093.212.094.316.083.08-.009.153-.03.227-.05a2.86 2.86 0 0 1-.53.524c-.298.219-.616.447-.794.803-.187.373-.184.78-.141 1.178.043.397.127.792.127 1.15v12.094c0 .209.025.908.037 1.588.006.34.008.674.004.933-.002.13-.005.241-.012.323-.006.081-.03.148-.015.12-.053.105-.215.203-.39.311a1.18 1.18 0 0 0-.25.192.465.465 0 0 0-.13.314c0 .129.063.238.14.314.079.077.171.132.26.184.179.104.329.2.362.299.06.18-.01.45-.076.73-.033.14-.064.283-.059.426a.597.597 0 0 0 .168.408.25.25 0 0 0 .2.077.263.263 0 0 0 .163-.092c.078-.084.13-.192.186-.303a2.22 2.22 0 0 1 .172-.299c.046-.061.075-.073.101-.082 0 .026.001.055-.01.108-.028.144-.095.328-.095.498 0 .145.03.282.043.402.013.12.01.218-.03.295-.045.09-.249.209-.445.322a.946.946 0 0 0-.266.2.334.334 0 0 0-.044.351c.155.31.485.409.787.486.301.078.59.145.75.305a.7.7 0 0 1 .173.242c.022.06.018.095.002.135-.03.08-.151.181-.312.275-.16.094-.349.183-.494.301a.523.523 0 0 0-.172.219.385.385 0 0 0 .021.305.7.7 0 0 0 .375.324c.152.062.316.093.473.125.158.031.31.063.426.111.116.048.193.105.238.195v.002a.206.206 0 0 1-.05.053 1.913 1.913 0 0 1-.303.172c-.12.059-.24.112-.334.188a.293.293 0 0 0-.112.16.243.243 0 0 0 .069.216.57.57 0 0 0 .416.159c.145-.001.29-.038.431-.075.281-.073.538-.138.698-.058.044.022.083.105.078.228a.546.546 0 0 1-.112.315c.004-.004-.039.016-.117.012a1.787 1.787 0 0 1-.271-.047c-.093-.022-.171-.045-.242-.053a.243.243 0 0 0-.061 0c-.013.002-.03.004-.05.014a.15.15 0 0 0-.034.023.278.278 0 0 0-.031.041.247.247 0 0 0-.016.049.146.146 0 0 0 .022.094c.014.024.03.039.045.054a.815.815 0 0 0 .252.153c.104.048.23.098.365.154.086.036.174.09.265.13-.016.016-.043.019-.056.036-.093.12-.125.278-.137.455a2.37 2.37 0 0 0 .209 1.111c.078.16.174.296.322.36.149.063.336.012.479-.131.202-.202.17-.368.244-.55.101.177.182.282.299.517l.002.002a.141.141 0 0 1-.04.043c-.055.044-.164.1-.279.154-.114.055-.233.108-.33.186a.372.372 0 0 0-.12.15.281.281 0 0 0 .011.22c.155.311.486.41.787.487.302.077.59.143.75.303.104.103.113.188.094.326-.019.138-.082.313-.117.516-.036.202-.04.438.074.685.113.247.335.498.724.758.267.177.594.238.874.322.279.084.493.182.593.383h.002a.2.2 0 0 1-.05.055 1.926 1.926 0 0 1-.303.17c-.12.058-.24.113-.334.19a.29.29 0 0 0-.114.157.247.247 0 0 0 .069.219c.122.122.29.15.441.137.152-.013.303-.061.448-.106.144-.044.281-.084.39-.093a.262.262 0 0 1 .195.052c-.058.047-.18.113-.306.176-.126.063-.255.124-.354.203a.322.322 0 0 0-.12.158.247.247 0 0 0 .062.229c.122.122.289.15.441.137.152-.013.303-.061.447-.106.145-.044.282-.084.391-.094a.263.263 0 0 1 .197.053l-.002.002c-.058.047-.18.111-.306.174-.126.063-.255.124-.354.203a.322.322 0 0 0-.121.158.247.247 0 0 0 .063.229.572.572 0 0 0 .417.156 1.76 1.76 0 0 0 .43-.074c.281-.074.54-.139.7-.059.044.022.082.107.078.23a.546.546 0 0 1-.114.315c.004-.004-.039.017-.117.012a1.765 1.765 0 0 1-.27-.047c-.092-.022-.17-.045-.242-.053a.259.259 0 0 0-.062 0c-.013.002-.028.004-.049.014a.147.147 0 0 0-.033.023.286.286 0 0 0-.031.04.278.278 0 0 0-.016.05.158.158 0 0 0 .022.094c.014.025.027.04.042.055.23.228.53.32.809.41.043.013.066.039.107.053-.028.004-.055 0-.086.015a.228.228 0 0 0-.113.184c0 .227.12.442.283.605.164.164.378.283.606.283.291 0 .46-.028.652-.05.005.005.005.007.01.011.089.089.21.09.307.076.097-.013.19-.045.273-.072.035-.011.047-.012.076-.02-.015.018-.01.027-.039.05-.076.057-.19.115-.3.171-.111.057-.218.108-.301.186a.269.269 0 0 0-.094.166.252.252 0 0 0 .078.2.572.572 0 0 0 .418.155c.146 0 .29-.035.43-.072.28-.074.539-.14.699-.06.015.007.005-.008.006.021 0 .029-.011.09-.031.16s-.048.152-.063.238a.438.438 0 0 0 .03.278c.177.354.497.604.8.806 1.029.686 1.568 1.029 1.822 1.164a.8.8 0 0 0 .153.069c.023.007.045.022.107 0a.26.26 0 0 0 .05-.03.665.665 0 0 0 .036-.056l.006-.03.002-.023-.002-.008c.044.015.083.05.127.065.24.077.44.17.605.299-.003.028-.014.06-.011.085.008.077.035.153.06.229l-.011.043c-.027.084-.058.163-.061.254a.225.225 0 0 0 .045.154.219.219 0 0 0 .168.076.22.22 0 0 0 .18-.103.26.26 0 0 0 .023-.162c-.01-.089-.041-.177-.07-.264.013-.047.03-.09.037-.14.274.04.515.214.763.384-.056.005-.122.02-.175.02-.02 0-.03-.002-.063.006-.004 0-.01.004-.015.006l-.022.008-.031.025-.033.06.004.079.025.043.021.02.014.01c.033.018.04.017.057.02a3.745 3.745 0 0 0 .38.055c.126.012.25.019.352.008.05-.005.095 0 .158-.052.022-.018.03-.06.04-.098.205-.014.402-.019.564.063.093.046.124.087.137.12.012.034.01.077-.014.141-.047.129-.182.303-.29.475a.833.833 0 0 0-.12.271.345.345 0 0 0 .084.305c.159.163.458.205.99.207.22.191.488.295.744.377.044.014.067.04.11.055-.03.004-.057 0-.088.015a.224.224 0 0 0-.114.182c0 .096.056.2.137.242.081.043.162.04.246.031.126-.014.27-.063.412-.109l.028.006a.338.338 0 0 0 .058.008c.022 0 .048.008.1-.027a.217.217 0 0 0 .039-.037l.004-.012c.15-.049.304-.101.398-.111a.266.266 0 0 1 .096.004c.001 0-.006-.025-.006.006 0 .032-.02.068-.088.119-.068.05-.172.101-.277.154-.106.053-.211.105-.297.184a.333.333 0 0 0-.102.152.294.294 0 0 0 .022.207c.153.306.436.506.756.64.006.04-.02.078 0 .116.152.306.436.506.755.64.006.04-.018.078 0 .116.256.511.868.732 1.424.783-.007.098-.003.212.008.33.01.102.025.19.037.266l-.01.037v.029a.16.16 0 0 0 .004.018c.01.038.02.046.032.064l.011.018.002.006.01.013.002.002.014.022c.063.093.166.23.28.365.112.136.231.268.337.354.053.043.09.083.18.091.013.001.03-.015.047-.02.073.084.15.155.23.231-.088.1-.179.174-.252.282-.1.148-.179.299-.205.459a.531.531 0 0 0 .143.464c.066.067.15.11.234.12.085.01.165-.01.238-.043.146-.066.272-.182.403-.303-.073.37-.145.738-.159 1.642v.055l.04.041a.405.405 0 0 0 .234.12c.085.01.165-.01.238-.044.091-.04.17-.12.252-.19 0 .008-.008.014-.008.02 0 .408.063.659.211.81.148.153.358.153.535.118.178-.035.35-.101.496-.129.127-.024.202-.004.27.045v.242c-.008.027-.01.047-.02.074-.027.084-.057.164-.06.254a.225.225 0 0 0 .045.155c.006.007.016.005.023.011-.012.212-.076.462-.119.721-.047.284-.052.594.17.816.05.05.124.088.2.079a.27.27 0 0 0 .165-.094c.078-.084.13-.19.186-.3.056-.112.115-.226.172-.302.045-.06.075-.071.101-.08 0 .027 0 .054-.01.106-.028.144-.095.328-.095.498v1.424c-.008.005-.019.002-.026.008a.242.242 0 0 0-.078.132c-.02.09-.007.17.01.256.028.14.061.269.076.365-.002.002-.005 0-.008.002a.242.242 0 0 0-.078.133.592.592 0 0 0 .01.258l.014.069-.014.068a.584.584 0 0 0-.01.256c.004.018.023.034.031.052-.113.066-.246.105-.32.207-.12.169-.222.352-.326.456-.104.104-.287.205-.455.326a.772.772 0 0 0-.27.416c-.009.007-.022.005-.03.013-.019.018-.006.045-.02.065-.002.013-.02.016-.02.03 0 .003.006.007.006.01-.061.108-.115.221-.106.337.013.152.061.303.106.447.045.145.086.284.096.393a.259.259 0 0 1-.053.197l-.002-.002a2.117 2.117 0 0 1-.174-.307c-.063-.126-.124-.256-.203-.355a.319.319 0 0 0-.158-.12.247.247 0 0 0-.229.061c-.222.222-.216.533-.17.817.013.074.02.133.036.207-.103.178-.216.356-.276.543-.02.06-.056.096-.076.154l.006-.037c.003-.046.023-.078-.024-.156a.15.15 0 0 0-.064-.06.155.155 0 0 0-.096-.01c-.052.013-.072.034-.092.054-.228.228-.32.532-.41.81-.02.061-.056.096-.076.154l.006-.037c.003-.046.023-.077-.023-.156a.15.15 0 0 0-.065-.058.155.155 0 0 0-.096-.01c-.052.012-.072.035-.091.054-.239.239-.298.58-.373.871-.075.292-.155.519-.348.616-.003 0 .005.004-.012-.004a.347.347 0 0 1-.086-.07 2 2 0 0 1-.226-.327c-.073-.124-.136-.242-.192-.322a.39.39 0 0 0-.045-.057c-.018-.019-.039-.052-.113-.055a.163.163 0 0 0-.107.043.146.146 0 0 0-.037.065.256.256 0 0 0-.012.088c0 .258.165.446.308.637a.284.284 0 0 0-.234.002c-.31.155-.409.485-.486.787-.007.026-.02.04-.028.066a.226.226 0 0 0-.183-.111.465.465 0 0 0-.315.13 1.17 1.17 0 0 0-.19.25c-.107.175-.205.337-.31.39-.069.034-.199.039-.355.023-.156-.016-.335-.048-.514-.045-.178.002-.369.043-.508.19-.118.124-.16.344-.177.6-.323.015-.576.055-.71.184-.151.148-.154.356-.118.534.035.177.103.352.13.498.028.145.022.235-.05.308-.233.233-.402.363-.498.41-.043.021-.06.021-.067.022a.719.719 0 0 1-.021-.215c.027-.04.054-.081.054-.123 0-.027-.03-.036-.037-.06.011-.098.022-.192.037-.3.025-.165.049-.334.057-.484.008-.15.012-.28-.062-.398a.266.266 0 0 0-.186-.12.4.4 0 0 0-.223.051c-.15.074-.324.22-.566.461a.252.252 0 0 0-.078.2.269.269 0 0 0 .094.166c.083.077.19.127.3.183.111.057.223.117.3.174.027.021.02.03.036.047-.028-.008-.04-.009-.074-.02-.083-.026-.176-.058-.273-.072-.097-.014-.216-.01-.305.078l-.01.012c-.192-.023-.36-.05-.652-.05a.298.298 0 0 0-.235.1.326.326 0 0 0-.06.223c.005.148.06.304.113.471.054.167.109.342.129.482.02.141.004.229-.041.274-.233.233-.402.362-.498.41-.043.022-.062.021-.068.022a.752.752 0 0 1-.02-.217c.026-.04.055-.08.055-.121 0-.027-.031-.036-.037-.06.01-.098.021-.192.037-.3.024-.166.048-.334.056-.484.009-.15.013-.28-.062-.398a.266.266 0 0 0-.186-.12.4.4 0 0 0-.222.051c-.15.074-.325.22-.567.461a.252.252 0 0 0-.078.2.27.27 0 0 0 .092.165c.084.078.192.13.303.186.11.057.222.115.299.172.029.022.023.03.039.049-.03-.008-.042-.008-.077-.02-.082-.027-.176-.06-.273-.074-.097-.014-.216-.01-.305.078a.345.345 0 0 0-.09.273c.008.087.035.165.057.237.022.072.041.14.045.183.004.044 0 .051-.012.063-.045.045-.134.063-.275.043-.099-.014-.22-.056-.338-.092-.01-.01-.009-.03-.021-.037a.26.26 0 0 0-.163-.023c-.007 0-.015.005-.023.006-.142-.046-.28-.093-.408-.098a.323.323 0 0 0-.223.06.296.296 0 0 0-.1.235.22.22 0 0 0 .104.18c.06.031.112.028.16.023.097-.01.193-.047.287-.078.064-.021.108-.031.157-.043a.49.49 0 0 1-.163.267 2.43 2.43 0 0 1-.449.274h-.207a3.979 3.979 0 0 1-.183-.047c-.083-.024-.16-.048-.25-.043a.23.23 0 0 0-.149.058c-.009.008-.005.022-.012.032h-2.943c-.082 0-.276-.058-.447-.092a.586.586 0 0 0-.256-.01.242.242 0 0 0-.133.078c-.005.007-.003.016-.008.023h-.582c-.025-.182-.06-.359-.162-.468a.91.91 0 0 0-.48-.256c-.339-.076-.698-.033-.912-.03-.032-.04-.04-.102-.082-.12a.586.586 0 0 0-.28-.042c-.064.004-.112.052-.176.067-.068-.013-.135-.027-.208-.01a.246.246 0 0 0-.133.08.247.247 0 0 0-.053.156c0 .01.009.015.01.023-.02.065-.058.128-.05.188.015.097.048.19.075.273.016.049.02.073.028.108-.02-.01-.041-.01-.063-.03a1 1 0 0 1-.146-.195c-.102-.163-.204-.379-.418-.486-.179-.09-.354-.02-.489.016a.78.78 0 0 1-.166.03c-.039.001-.05-.004-.066-.02-.007-.008-.013-.017-.006-.067.007-.05.03-.124.055-.201.025-.077.053-.158.058-.248a.3.3 0 0 0-.023-.145.264.264 0 0 0-.12-.121c-.26-.13-.54-.127-.808-.098-.268.03-.53.084-.762.084h-2.267v.266h3.023v-.082l.033-.004c.25-.027.47-.024.66.07v.016a.893.893 0 0 1-.044.18c-.025.075-.057.157-.069.248-.012.09 0 .206.082.289a.358.358 0 0 0 .256.097c.084 0 .16-.02.23-.039.143-.037.258-.059.305-.035.105.052.203.216.31.39.055.088.111.175.19.249a.466.466 0 0 0 .315.132.219.219 0 0 0 .168-.076.225.225 0 0 0 .045-.154c-.004-.09-.034-.17-.06-.254-.016-.048-.024-.089-.036-.133a.804.804 0 0 0 .574-.01.363.363 0 0 0 .131-.091c.008-.01.007-.025.014-.035.24-.006.553-.038.816.021.144.032.264.09.346.178.056.06.072.179.094.289h-.58c-.022 0-.038 0-.069.008a.164.164 0 0 0-.03.012l-.017.011-.023.02-.022.035-.011.045.003.043.012.031a.26.26 0 0 0 .026.035c.007.007.015.012.021.016l.027.017a.572.572 0 0 0 .053.02c.073.024.178.048.295.064.117.017.24.029.354.014a.379.379 0 0 0 .164-.055c.015-.009.016-.036.029-.05h.643c.013.014.014.04.029.05a.384.384 0 0 0 .164.055c.113.015.238.003.355-.014.118-.016.22-.04.293-.064.018-.006.036-.011.053-.02a.115.115 0 0 0 .014-.008h2.871c.013.015.014.042.03.051a.384.384 0 0 0 .163.055c.113.015.238.003.356-.014.117-.017.222-.04.295-.064a.24.24 0 0 0 .08-.037l.02-.016a.17.17 0 0 0 .025-.035l.007-.018c.139-.072.286-.147.418-.257.125-.105.186-.262.233-.42.098.028.194.064.293.078.176.025.365.016.498-.117a.345.345 0 0 0 .09-.274c-.008-.087-.035-.166-.057-.238a1.03 1.03 0 0 1-.045-.182c-.004-.044 0-.05.012-.062 0 0 .02-.011.082-.002.061.009.145.033.228.06.06.02.12.032.182.043 0 .103-.01.205.045.291.037.06.109.11.185.117a.4.4 0 0 0 .223-.05c.15-.074.324-.217.566-.46.134-.132.143-.323.118-.5-.026-.176-.085-.356-.139-.523a1.977 1.977 0 0 1-.102-.4c-.001-.04.008-.055.004-.05-.003.003-.01 0 .028 0 .211 0 .306.022.459.034-.076.096-.19.211-.225.29a.417.417 0 0 0-.045.216.27.27 0 0 0 .106.184c.11.08.238.074.369.054.13-.02.27-.066.396-.127a.964.964 0 0 0 .323-.23c.012-.014.016-.035.027-.05.04.048.094.094.16.1a.4.4 0 0 0 .223-.05c.15-.074.326-.217.568-.459.153-.153.157-.365.123-.545-.034-.18-.102-.356-.13-.5-.03-.144-.024-.228.042-.293.06-.058.259-.11.56-.123a1.001 1.001 0 0 1-.032.125c-.027.083-.059.176-.073.273-.014.097-.01.218.078.307.134.133.337.189.532.2a.587.587 0 0 0 .279-.042.291.291 0 0 0 .17-.252.426.426 0 0 0-.164-.32c-.088-.074-.189-.126-.283-.176a1.486 1.486 0 0 1-.233-.14c0-.008.006-.014.006-.022a.225.225 0 0 0-.045-.154c-.005-.006-.014-.004-.02-.01.014-.227.055-.391.12-.46.074-.077.177-.103.32-.105.143-.002.313.026.482.043.17.017.344.028.5-.05.215-.108.317-.323.418-.487a1 1 0 0 1 .147-.195c.027-.025.053-.026.078-.035-.004.063-.022.16-.047.256-.026.103-.054.2-.068.277a.365.365 0 0 0-.008.059c0 .022-.008.048.027.1l.016.019.021.02.057.02.027.003c.009 0 .015 0 .022-.002a.177.177 0 0 0 .035-.012.189.189 0 0 0 .067-.047c.238-.239.298-.581.373-.873.075-.292.154-.518.347-.615.003-.001-.005-.004.012.004s.05.032.086.07a2 2 0 0 1 .226.326c.073.124.136.242.192.323a.39.39 0 0 0 .045.056c.018.019.04.053.113.055a.158.158 0 0 0 .106-.043.154.154 0 0 0 .039-.065.256.256 0 0 0 .011-.088c0-.258-.165-.445-.308-.636.067.03.158.036.234-.002.31-.155.409-.486.486-.787.01-.04.03-.06.04-.098-.002.026-.014.045.013.09a.15.15 0 0 0 .065.058c.032.016.07.016.095.01.052-.012.073-.035.092-.054.229-.229.32-.53.41-.809.02-.062.056-.097.076-.156 0 .012-.005.028-.005.039-.004.046-.023.077.023.156a.15.15 0 0 0 .064.059c.032.015.07.016.096.01.052-.012.072-.035.092-.055.229-.229.32-.53.41-.808.024-.076.068-.12.094-.192.005.046.025.108.025.15 0 .02-.002.03.006.063l.004.016.01.021.025.031.06.034.079-.004.043-.026.02-.021.01-.016c.018-.033.017-.04.02-.057.005-.015.007-.032.01-.052.016-.08.034-.2.045-.326.012-.126.018-.25.008-.352-.005-.05-.001-.095-.053-.158a.177.177 0 0 0-.142-.057c-.001 0 0 .002-.002.002-.024-.197-.017-.36.078-.476.047.059.11.18.172.304.063.126.124.255.203.354.04.05.086.098.16.121a.244.244 0 0 0 .227-.063.543.543 0 0 0 .138-.44 2.131 2.131 0 0 0-.105-.448 2.438 2.438 0 0 1-.078-.322c.054.1.06.215.137.3.087.099.184.18.298.223a.35.35 0 0 0 .366-.068.313.313 0 0 0 .087-.2.469.469 0 0 0-.033-.2 1.055 1.055 0 0 0-.244-.354 1.042 1.042 0 0 0-.351-.243c-.02-.007-.041-.004-.061-.01.039-.049.04-.1.113-.152.147-.105.34-.205.489-.353.148-.148.248-.342.353-.489.041-.057.082-.053.121-.09-.016.067-.023.11-.037.176a.584.584 0 0 0-.01.256c.01.045.034.096.078.133a.247.247 0 0 0 .157.053.264.264 0 0 0 .17-.065.375.375 0 0 0 .093-.133.768.768 0 0 0 .059-.312.778.778 0 0 0-.059-.314c-.01-.024-.032-.043-.047-.065.015-.022.037-.04.047-.064a.768.768 0 0 0 .059-.313.778.778 0 0 0-.059-.314.384.384 0 0 0-.084-.118c.017-.064.035-.126.047-.21.017-.118.027-.243.012-.356a.384.384 0 0 0-.055-.164c-.01-.015-.036-.016-.05-.03v-1.454c0-.082.057-.277.091-.448a.583.583 0 0 0 .012-.255.246.246 0 0 0-.08-.133.247.247 0 0 0-.156-.053c-.152 0-.26.102-.338.207-.079.105-.141.228-.198.338a1.62 1.62 0 0 1-.13.223c-.117-.134-.133-.314-.092-.559.004-.024.007-.052.012-.076h.123v-.7c.014-.013.04-.014.05-.029a.384.384 0 0 0 .055-.164 1.355 1.355 0 0 0-.012-.355 1.793 1.793 0 0 0-.064-.295.414.414 0 0 0-.022-.051c-.004-.009-.007-.018-.015-.03l-.018-.019c-.003-.004-.008-.007-.013-.011a1.46 1.46 0 0 0-.02-.014l-.033-.014-.043-.002-.045.01-.033.024-.004.004c-.123-.046-.246-.107-.367-.084-.18.034-.356.102-.5.13-.144.03-.228.024-.293-.043-.058-.06-.109-.257-.121-.558.035.008.068.013.125.031.082.027.176.058.273.072.097.014.216.013.305-.076.133-.133.188-.337.199-.531a.594.594 0 0 0-.041-.281.291.291 0 0 0-.252-.17c-.186 0-.348.09-.496.2-.148.11-.285.245-.412.362a1.536 1.536 0 0 1-.332.256.194.194 0 0 1-.1.02c-.01-.001-.023-.013-.033-.018.02-1.004.092-1.546.17-1.824.036-.031.074-.07.11-.096.01-.008.016-.005.027-.012.064.133.115.331.162.53-.053.16-.11.32-.125.462a.413.413 0 0 0 .033.249.278.278 0 0 0 .24.134.186.186 0 0 0 .115-.043.207.207 0 0 0 .057-.078.457.457 0 0 0 .033-.162 1.956 1.956 0 0 0-.031-.41c-.009-.054-.037-.099-.049-.154.063-.189.13-.378.149-.545a.412.412 0 0 0-.032-.248c-.042-.082-.146-.135-.242-.135-.072 0-.126.053-.191.076-.007-.008-.012-.018-.02-.025a.266.266 0 0 0-.178-.082c-.045-.001-.077.032-.115.056.022-.093.034-.194.031-.299a1.087 1.087 0 0 0-.052-.335c-.018-.049-.035-.1-.1-.141a.182.182 0 0 0-.127-.023.193.193 0 0 0-.098.056c-.077.078-.175.206-.271.305-.102-.097-.21-.197-.307-.309-.038-.524-.332-.997-.68-1.373.006-.007.02-.007.024-.014a.384.384 0 0 0 .055-.164 1.355 1.355 0 0 0-.014-.355 1.792 1.792 0 0 0-.064-.295.403.403 0 0 0-.02-.05.19.19 0 0 0-.033-.05c-.004-.004-.008-.009-.014-.013a.512.512 0 0 0-.021-.014l-.031-.012-.043-.004-.045.012-.036.021-.019.024a.315.315 0 0 0-.023.047c-.01.03-.008.047-.008.068v.56a1.617 1.617 0 0 1-1.063-.52c.15.028.298.093.44.093a.264.264 0 0 0 .17-.065.37.37 0 0 0 .091-.132.769.769 0 0 0 .059-.313.778.778 0 0 0-.059-.314.363.363 0 0 0-.091-.131.264.264 0 0 0-.17-.065c-.233 0-.475.125-.66.293-.033.03-.048.07-.077.102-.165-.08-.35-.1-.459-.225.15.03.298.094.44.094a.264.264 0 0 0 .17-.065.37.37 0 0 0 .092-.132.769.769 0 0 0 .058-.313.778.778 0 0 0-.058-.314.363.363 0 0 0-.092-.131.264.264 0 0 0-.17-.065c-.232 0-.475.123-.66.291-.033.03-.048.071-.077.104-.237-.116-.556-.118-.658-.322-.008-.017-.004-.013-.004-.014 0-.001.007-.013.028-.031a1.25 1.25 0 0 1 .236-.14c.104-.053.22-.108.318-.183.1-.074.194-.184.194-.33a.28.28 0 0 0-.137-.24.413.413 0 0 0-.248-.033c-.152.017-.326.077-.498.135-.217-.18-.475-.286-.723-.366-.042-.013-.064-.039-.105-.052.028-.004.055 0 .086-.016a.226.226 0 0 0 .111-.183c0-.228-.117-.442-.281-.606-.164-.164-.378-.283-.606-.283a.22.22 0 0 0-.18.103.26.26 0 0 0-.023.163c.011.096.045.192.076.287a1.8 1.8 0 0 1 .051.181c-.007.004-.008-.002-.017.004l-.004.004c-.418-.016-.694-.08-.733-.119-.022-.022-.022-.025-.013-.066a.654.654 0 0 1 .086-.184c.093-.15.242-.326.314-.523a.466.466 0 0 0 .012-.323.506.506 0 0 0-.266-.267c-.26-.13-.543-.127-.81-.098-.046.005-.084.008-.13.014-.365-.321-.798-.605-1.292-.64-.002-.003 0-.007-.002-.009-.23-.229-.53-.32-.809-.41-.061-.02-.096-.056-.154-.076.01 0 .026.005.037.006.046.003.077.023.156-.024a.149.149 0 0 0 .059-.064.154.154 0 0 0 .01-.096c-.013-.052-.036-.072-.055-.091-.414-.414-.986-.795-1.606-.795a.139.139 0 0 0-.068.015.16.16 0 0 0-.072.084c-.023.069 0 .1.011.123.024.046.051.073.086.112.071.076.174.175.293.283-.296-.188-.4-.24-.931-.594-.29-.193-.57-.422-.711-.705-.01-.018-.014-.058-.004-.117.01-.06.033-.131.055-.207a.8.8 0 0 0 .043-.244.297.297 0 0 0-.153-.248c-.29-.146-.611-.031-.885.04a1.612 1.612 0 0 1-.365.065.288.288 0 0 1-.207-.072c.04-.033.125-.082.229-.135.11-.056.233-.119.338-.197.105-.079.207-.187.207-.338a.223.223 0 0 0-.077-.17c-.045-.036-.09-.037-.132-.037a.283.283 0 0 0 .037-.176.37.37 0 0 0-.088-.17.976.976 0 0 0-.324-.232 1.428 1.428 0 0 0-.395-.125c-.13-.02-.258-.026-.369.054a.27.27 0 0 0-.105.184.415.415 0 0 0 .042.217c.035.078.15.192.225.287-.152.012-.247.035-.459.035-.129 0-.293-.08-.418-.205a.647.647 0 0 1-.178-.363c.064.004.157.02.252.045.103.026.2.056.278.07a.344.344 0 0 0 .058.006c.022 0 .05.01.102-.025.006-.004.019-.018.02-.018l.017-.022.021-.054s.003-.02.002-.028a.152.152 0 0 0-.011-.056c-.016-.037-.033-.05-.05-.067-.228-.228-.53-.32-.808-.41-.074-.023-.118-.066-.187-.091.083-.002.17.004.24-.067a.733.733 0 0 0 .19-.492c.006-.182-.044-.386-.225-.477-.291-.145-.61-.032-.883.04a1.621 1.621 0 0 1-.365.066.288.288 0 0 1-.198-.069l.004-.004c.059-.046.183-.11.309-.173.126-.063.255-.126.354-.205a.322.322 0 0 0 .12-.159.243.243 0 0 0-.062-.226.543.543 0 0 0-.441-.139c-.152.013-.303.061-.448.106a2.07 2.07 0 0 1-.392.093.258.258 0 0 1-.197-.05l.002-.003c.058-.046.182-.11.308-.173.126-.063.255-.126.354-.205a.322.322 0 0 0 .12-.159.243.243 0 0 0-.062-.226.543.543 0 0 0-.441-.139c-.152.013-.303.061-.447.106a2.063 2.063 0 0 1-.393.093.258.258 0 0 1-.195-.05c.052-.04.156-.094.271-.15.12-.06.25-.12.352-.202a.414.414 0 0 0 .127-.154.275.275 0 0 0-.006-.227c-.152-.303-.458-.428-.754-.518-.297-.089-.6-.154-.803-.289-.362-.241-.544-.457-.63-.646a.85.85 0 0 1-.055-.531c.03-.173.094-.343.119-.524a.633.633 0 0 0-.168-.55c-.239-.24-.581-.297-.873-.372-.292-.075-.519-.156-.615-.35l-.002-.001a.168.168 0 0 1 .04-.043c.056-.045.163-.1.278-.155.114-.054.236-.11.332-.187a.368.368 0 0 0 .12-.15.277.277 0 0 0-.013-.22c-.155-.31-.271-.478-.402-.696.004-.063.101-.142.09-.202-.058-.311-.298-.543-.574-.724a5.257 5.257 0 0 0-.873-.43c.078-.004.159.003.224-.062a.728.728 0 0 0 .19-.49c.007-.182-.044-.387-.225-.477-.29-.146-.611-.033-.885.039a1.612 1.612 0 0 1-.365.064.288.288 0 0 1-.193-.068c.052-.04.157-.095.273-.152.12-.06.25-.12.352-.202a.407.407 0 0 0 .127-.152.275.275 0 0 0-.006-.226.699.699 0 0 0-.375-.325c-.152-.062-.315-.093-.473-.125a2.43 2.43 0 0 1-.424-.111c-.116-.048-.195-.105-.24-.195-.024-.048-.022-.067-.012-.094a.295.295 0 0 1 .092-.107c.105-.085.287-.176.461-.278.174-.101.353-.213.428-.406a.462.462 0 0 0-.002-.324.956.956 0 0 0-.237-.338c-.238-.239-.579-.298-.87-.373-.293-.075-.52-.154-.616-.348-.02-.04-.018-.029.012-.064a.852.852 0 0 1 .195-.14c.182-.106.435-.206.549-.434a.771.771 0 0 0 .055-.442c-.015-.138-.041-.267-.041-.373 0-.082.057-.276.091-.447a.583.583 0 0 0 .012-.256.242.242 0 0 0-.078-.133.252.252 0 0 0-.158-.053c-.152 0-.26.103-.338.208-.079.104-.14.228-.195.337-.054.104-.104.19-.137.229a.31.31 0 0 1-.08-.21c-.004-.098.02-.22.05-.355.064-.267.17-.577.07-.875-.079-.238-.308-.343-.48-.443a1.196 1.196 0 0 1-.207-.144c-.046-.046-.062-.076-.062-.125 0-.053.017-.089.06-.135a.999.999 0 0 1 .196-.147c.163-.1.379-.201.486-.416.039-.077.036-.13.043-.22.007-.091.011-.206.014-.338.004-.265 0-.6-.006-.942-.013-.683-.037-1.397-.037-1.584v-12.093c0-.398-.086-.801-.127-1.18-.041-.379-.038-.727.113-1.03.14-.28.419-.49.717-.708.298-.219.617-.447.795-.803a.23.23 0 0 0 .025-.08.171.171 0 0 0-.031-.12c-.057-.073-.125-.065-.166-.062-.083.006-.16.032-.25.057a1.75 1.75 0 0 1-.258.056c-.072.008-.105-.009-.101-.005a.425.425 0 0 1-.094-.284c0-.117.04-.23.094-.285.16-.16.448-.225.75-.303.301-.077.631-.175.787-.486a.294.294 0 0 0 .021-.207.332.332 0 0 0-.101-.152c-.086-.079-.192-.131-.297-.184-.106-.053-.21-.103-.278-.154-.067-.051-.088-.087-.088-.12 0-.13.065-.23.19-.335a2.92 2.92 0 0 1 .496-.303c.189-.1.385-.2.543-.334.158-.133.283-.314.283-.539a.226.226 0 0 0-.111-.184c-.031-.015-.059-.011-.088-.015.041-.014.065-.04.107-.053.279-.09.582-.181.81-.41.02-.02.041-.04.054-.092a.154.154 0 0 0-.01-.096.149.149 0 0 0-.059-.064c-.079-.046-.11-.027-.156-.024l-.037.006c.058-.02.093-.056.154-.076.279-.09.582-.181.81-.41.017-.017.032-.03.048-.066a.138.138 0 0 0 .012-.084l-.022-.055-.02-.023s-.013-.012-.02-.016c-.05-.035-.077-.026-.099-.025a.369.369 0 0 0-.058.005c-.078.014-.175.045-.278.07a1.5 1.5 0 0 1-.234.042c.027-.074.087-.184.258-.319.201-.16.478-.326.757-.476a13.183 13.183 0 0 1 1.028-.494l.072-.032.02-.007.004-.002.003-.002.004-.002.006-.004.031-.022a.343.343 0 0 0 .088-.273c-.007-.087-.032-.166-.054-.238a1.03 1.03 0 0 1-.045-.182c-.004-.044 0-.051.011-.063.734-.733 1.13-1.089 1.313-1.21-.009.063-.023.138-.03.222a.491.491 0 0 0 .053.303c.06.1.194.158.338.146.145-.012.318-.073.559-.193.394-.197.678-.344.877-.455.199-.111.311-.179.383-.248a.242.242 0 0 0 .048-.063.165.165 0 0 0 .014-.123.163.163 0 0 0-.08-.093.22.22 0 0 0-.068-.024c-.083-.015-.166-.007-.266-.004a2.45 2.45 0 0 1-.297 0 .385.385 0 0 1-.16-.043c-.005-.004-.003.003-.004-.004a.19.19 0 0 1 .02-.07c.035-.08.134-.218.324-.408.051-.051.123-.067.244-.05.12.015.272.066.426.116.153.05.306.103.459.112a.481.481 0 0 0 .228-.038.382.382 0 0 0 .18-.175c.076-.151.07-.318.043-.477-.027-.159-.078-.315-.12-.459a1.368 1.368 0 0 1-.068-.363c.003-.088.013-.119.084-.154.088-.044.156-.035.254.013.099.048.212.142.332.25.241.217.507.506.868.506.06 0 .136-.03.173-.088a.233.233 0 0 0 .034-.158c-.009-.092-.043-.177-.073-.264a1.353 1.353 0 0 1-.062-.228c-.003-.02-.001-.027 0-.033.187-.09.406-.095.65-.069l.033.004v.08h.657c.004.006.003.018.007.022.063.051.108.05.159.054.101.01.226.002.351-.01a3.704 3.704 0 0 0 .38-.054c.015-.004.023-.003.056-.022a.384.384 0 0 0 .037-.027l.025-.045.004-.076-.033-.06-.031-.026-.022-.01-.015-.004c-.033-.008-.043-.006-.063-.006h-.201c.088-.033.146-.088.242-.119.256-.082.522-.186.742-.377.237.093.485.114.725.088l.055-.006c.028.01.056.024.086.028.112.014.238.005.355-.012.117-.017.223-.04.295-.065a.4.4 0 0 0 .05-.02c.005-.001.011-.006.016-.009h.66c.221 0 .506.086.79.133.283.047.594.052.816-.17a.246.246 0 0 0 .06-.228.319.319 0 0 0-.119-.159c-.098-.079-.23-.14-.355-.203a2.12 2.12 0 0 1-.305-.174c.133-.11.307-.13.547-.09.024.005.054.008.078.012v.123h.698c.013.016.013.043.029.053.054.034.11.045.166.053a1.771 1.771 0 0 0 .62-.07c.07.02.158.043.263.058.117.017.242.026.355.012a.38.38 0 0 0 .164-.053c.016-.01.016-.037.03-.053h1.455l1.99-.006 1.23-.002c.167 0 .304.003.4.004l.071.002c.032.05.054.117.037.239-.02.14-.077.313-.13.48-.055.167-.109.325-.114.473a.327.327 0 0 0 .06.222c.055.07.147.1.235.1.34 0 .6-.217.838-.406.237-.19.451-.35.674-.35.128 0 .292.082.418.207a.65.65 0 0 1 .168.338 1.914 1.914 0 0 1-.166-.047c-.095-.031-.191-.065-.288-.076a.26.26 0 0 0-.162.023.22.22 0 0 0-.103.18c0 .231.181.405.404.582.223.177.512.35.799.504.182.098.337.168.5.246-.038-.005-.068-.019-.137.022a.149.149 0 0 0-.058.064.155.155 0 0 0-.01.096c.012.052.033.072.053.092.149.149.394.162.58.287.019.172.058.35.175.468a.362.362 0 0 0 .258.098c.084 0 .16-.02.23-.039.143-.037.256-.059.303-.035.158.078.34.177.473.289.046.038.04.08.072.12-.06-.014-.106-.06-.168-.063a.586.586 0 0 0-.279.04.291.291 0 0 0-.17.253c0 .064.027.126.065.17.037.043.083.07.13.091a.778.778 0 0 0 .575.01c-.012.044-.02.085-.035.133-.028.084-.058.163-.061.254a.225.225 0 0 0 .045.154.219.219 0 0 0 .168.076c.151 0 .261-.102.34-.207.078-.105.139-.228.195-.338.053-.103.104-.19.137-.228a.287.287 0 0 1 .07.207c0 .1-.029.228-.064.365-.072.273-.185.592-.04.883a.25.25 0 0 0 .143.121.36.36 0 0 0 .156.012c.099-.012.196-.047.284-.076.068-.024.115-.036.156-.045a3.912 3.912 0 0 1-.028.488c-.016.105-.04.14-.046.152a.795.795 0 0 1-.088-.06c-.048-.036-.098-.08-.17-.108a.255.255 0 0 0-.131-.017.243.243 0 0 0-.137.074c-.07.075-.096.17-.119.312a4.027 4.027 0 0 0-.033.6h.264c0-.257.012-.44.03-.559a.36.36 0 0 1 .048-.152c.02.011.049.031.088.06.047.037.097.08.17.108.036.014.08.025.13.018a.243.243 0 0 0 .137-.075c.07-.075.097-.17.12-.312.022-.143.032-.335.032-.6 0-.06-.03-.136-.088-.174a.233.233 0 0 0-.158-.033c-.091.009-.176.043-.263.073-.088.03-.175.056-.229.062-.017.002-.022 0-.03 0-.072-.16-.015-.41.057-.686a1.76 1.76 0 0 0 .075-.43.574.574 0 0 0-.159-.417.252.252 0 0 0-.199-.078.264.264 0 0 0-.164.093c-.077.084-.129.19-.185.301-.057.11-.115.225-.172.301-.022.029-.032.022-.05.037.009-.029.01-.042.02-.076.027-.083.059-.176.073-.274.008-.06-.029-.123-.05-.187.002-.009.01-.014.01-.023 0-.022-.024-.03-.027-.051-.009-.014.001-.03-.011-.043-.004-.004-.012-.002-.016-.006a.797.797 0 0 0-.25-.453c-.12-.1-.254-.168-.383-.237.006-.046.02-.095.006-.13a.902.902 0 0 0-.223-.309 1.96 1.96 0 0 0-.351-.277.855.855 0 0 0-.307-.11l-.017-.013-.006-.002-.006-.002-.006-.004-.02-.008a60.69 60.69 0 0 1-.328-.145 13.66 13.66 0 0 1-.771-.38 5.42 5.42 0 0 1-.76-.479c-.154-.122-.194-.21-.23-.287.044.012.077.02.13.037.095.032.191.065.288.076a.26.26 0 0 0 .162-.023.217.217 0 0 0 .103-.178c0-.228-.12-.442-.283-.605-.164-.164-.378-.284-.606-.284-.34 0-.6.218-.837.407-.238.189-.452.35-.674.35-.038 0-.029-.005-.026 0 .004.003-.005-.01-.004-.05.003-.08.046-.234.1-.4.054-.166.116-.35.14-.525.026-.177.017-.365-.116-.498l-.045-.03-.018-.006-.016-.004a.298.298 0 0 0-.052-.004c-.029 0-.068 0-.118-.002l-.404-.002h-1.232l-1.989.008H59.81c-.005-.008-.002-.018-.008-.025a.242.242 0 0 0-.133-.078.591.591 0 0 0-.258.011c-.17.035-.363.092-.445.092-.082 0-.277-.057-.447-.092a.583.583 0 0 0-.256-.011.242.242 0 0 0-.133.078c-.003.003-.001.008-.004.012-.209-.015-.454-.078-.707-.12zm-3.826.435c-.011.04-.017.07-.035.123-.03.088-.063.183-.075.281-.001.013.003.028.002.042l-.156.039a1.547 1.547 0 0 1-.252.046.647.647 0 0 1 .178-.363.65.65 0 0 1 .338-.168zm15.27 3.014c.05.014.104.024.179.07.105.064.216.153.303.24.032.033.036.05.06.08-.227-.028-.418-.195-.633-.32.003-.02.002-.045.006-.058.024.001.044.01.084-.012zm-.018.38c.082.04.152.09.238.118a.714.714 0 0 1-.129.023c-.04 0-.052-.003-.068-.02-.015-.014-.024-.082-.041-.12zm1.008.942c.074.004.122.04.191.067-.04.008-.072.02-.117.02a.568.568 0 0 1-.207-.036.12.12 0 0 1-.037-.024c-.002-.005-.01 0 .013-.01a.392.392 0 0 1 .157-.017zm-28.053 37.018c.01-.002.034-.002.078.02.087.043.235.178.42.437.065.09.162.288.236.41-.024.174-.031.342-.293.603-.097.098-.137.096-.187.075-.05-.022-.127-.102-.19-.23a2.216 2.216 0 0 1-.181-.98.665.665 0 0 1 .082-.31c.016-.021.024-.023.035-.025zm7.963 9.988c.097.015.218.053.322.103a.78.78 0 0 1 .236.163.13.13 0 0 1 .03.05c0 .006.003 0-.002.008-.012.017-.095.08-.291.122-.032.007-.112.006-.149.011-.138-.152-.261-.299-.295-.373a.167.167 0 0 1-.02-.076.37.37 0 0 1 .169-.008zm3.74 3.344c.107.049.205.09.307.156-.018-.002-.042-.009-.059-.01-.022-.002-.052.012-.074.012-.063-.055-.112-.104-.174-.159zm4.787 2.767a.646.646 0 0 1 .338.166c.109.11.16.245.178.364a1.515 1.515 0 0 1-.252-.045l-.143-.037c-.011-.096-.045-.19-.076-.284-.022-.066-.033-.115-.045-.164zm.807 1.34l-.004.008h-.002c-.001 0 .006.022.006-.008zm2.133.89a.107.107 0 0 1 .025.038c.02.046.035.127.035.207a.56.56 0 0 1-.035.205.128.128 0 0 1-.025.04c-.187-.001-.303-.182-.497-.243.008-.008.01-.016.018-.023.142-.13.354-.222.479-.223zm.755.757a.107.107 0 0 1 .026.037c.02.046.035.127.035.207 0 .08-.015.159-.035.205a.128.128 0 0 1-.026.039c-.186 0-.302-.182-.496-.242.008-.008.01-.016.018-.024.142-.128.354-.22.478-.222zm.893 1.92c.074.105.11.213.166.326-.055-.062-.108-.107-.166-.166zm1.375 1.171c.01.05.022.092.023.155a.967.967 0 0 1-.021.22c-.069-.039-.114-.13-.178-.18.063-.065.117-.136.176-.195zm-.344.385c.11.086.16.223.29.287.042.022.095-.002.146-.017-.004.01-.01.016-.014.027-.006.017-.006.094-.012.113-.071.065-.148.129-.214.19a1.505 1.505 0 0 1-.333.254.194.194 0 0 1-.1.021c-.023-.003-.044-.01-.077-.043-.071-.07-.085-.136-.069-.234a.966.966 0 0 1 .164-.354c.059-.086.144-.158.22-.244zm1.112.295c0 .001.008.038.002.096-.003.025-.023.076-.03.107-.02-.053-.03-.118-.052-.166.022-.005.051-.031.072-.031.03 0 .007-.007.008-.006zm-.008 1.254c-.03 0-.005.007-.006.006v-.004l.006-.002zm.756.264c.012 0 0-.01.011.015a.392.392 0 0 1 .018.157c-.008.139-.078.314-.123.359 0 0-.019.01-.08.002a1.642 1.642 0 0 1-.23-.063c-.079-.025-.154-.05-.237-.056.101-.095.205-.193.303-.266.126-.094.242-.148.338-.148zm.177 8.275c.013.003.02.002.035.008.077.03.178.1.262.184a.833.833 0 0 1 .182.261c.015.039.019.07.017.088 0 .019-.003.021-.011.03-.028.027-.033.029-.084.01a.595.595 0 0 1-.196-.155.994.994 0 0 1-.205-.425zm-6.838 7.1c.059.036.116.076.174.107.095.05.182.099.237.145.054.045.07.075.07.117 0 .012.01-.002-.016.01a.384.384 0 0 1-.156.02c-.139-.009-.312-.079-.357-.124 0 0-.013-.02-.004-.082.007-.052.03-.122.052-.193zm-1.752.029c.009.016.03.11.022.238a5.2 5.2 0 0 1-.055.46c0 .007 0 .015-.002.023a2.965 2.965 0 0 0-.279-.16 1.461 1.461 0 0 1-.236-.141c.22-.219.389-.35.482-.397a.177.177 0 0 1 .068-.023zm-.642 1.285c.037.006.117.005.148.012.196.042.28.104.291.12.006.009.004.003.002.009a.15.15 0 0 1-.03.05.78.78 0 0 1-.237.165c-.105.05-.223.089-.32.103a.368.368 0 0 1-.17-.008c0-.008-.001-.033.02-.078.033-.074.156-.22.296-.373zm-1.625.227c.008.016.029.11.021.238-.007.131-.032.295-.056.46l-.002.022a2.965 2.965 0 0 0-.28-.16 1.415 1.415 0 0 1-.234-.14c.221-.22.39-.35.482-.397a.177.177 0 0 1 .069-.023zm-9.469 1.886a.597.597 0 0 1 .04.008l-.042-.006.002-.002zm43.584-82.566a.451.451 0 0 0-.316.143 1.258 1.258 0 0 0-.184.257c-.104.179-.199.33-.299.364-.206.068-.473.014-.713-.004v-.004h-.771c-.06-.032-.108-.087-.172-.094a1.444 1.444 0 0 0-.346.01 1.45 1.45 0 0 0-.271.06.295.295 0 0 0-.049.022c-.01.005-.02.009-.033.021a.396.396 0 0 0-.026.03l-.021.06.018.082.043.045s.022.013.03.016l.022.008c.026.005.042.004.063.004h.646c.068.175.087.367.063.59-.027.249-.084.519-.084.79v31.75c0 .477-.171 1.022.006 1.553.076.229.28.343.443.446.163.102.283.19.31.3.174.692-.003 1.46-.003 2.237v4.535c0 .482-.129 1.014.004 1.545.23.918.39 1.436.507 1.744.117.308.197.42.227.47.015.026.017.025.021.053.005.029.007.086.006.186 0 .2-.01.572-.01 1.295 0 .267-.032 1.342-.048 2.375a48.605 48.605 0 0 0-.008 1.42 8.662 8.662 0 0 0 .035.672c.007.047.012.08.035.126.099.197.269.317.418.426.15.11.277.208.338.33.009.017.031.114.041.243.01.128.014.294.012.486-.004.383-.03.866-.055 1.36-.025.492-.05.996-.058 1.425-.009.43-.004.777.05.996.078.312.28.56.45.795.151.211.247.407.271.613-.035-.008-.059-.011-.107-.027-.083-.027-.177-.058-.274-.072-.097-.014-.216-.01-.305.078-.133.133-.127.316-.103.465.024.148.064.29.064.384v6.682a.253.253 0 0 0-.1.11.87.87 0 0 0-.062.316c-.005.117.005.238.037.346a.404.404 0 0 0 .079.152c.04.046.107.086.18.086a.247.247 0 0 0 .155-.053.219.219 0 0 0 .063-.105c.008.025.025.04.033.066.081.252.186.514.371.732v19.581c-.015.013-.043.013-.052.029a.38.38 0 0 0-.053.164c-.015.113-.005.238.012.355.016.118.04.223.064.295a.414.414 0 0 0 .021.051c.005.01.008.018.016.03l.018.019.013.012.02.013.033.014.043.004.045-.012.033-.023.022-.022.011-.02a.164.164 0 0 0 .012-.028c.009-.031.006-.048.006-.069 0-.082.058-.274.092-.445a.592.592 0 0 0 .011-.258.242.242 0 0 0-.078-.133c-.007-.006-.017-.003-.025-.008V154.98c.005-.005.018-.003.021-.008.052-.062.05-.105.055-.156a1.95 1.95 0 0 0-.01-.353 3.704 3.704 0 0 0-.054-.38c-.004-.015-.003-.023-.022-.056a.4.4 0 0 0-.01-.015l-.017-.02-.045-.027-.076-.004-.06.033-.026.033-.01.022-.004.013c-.008.033-.006.043-.006.063v.201c-.033-.088-.088-.146-.119-.242-.081-.254-.186-.517-.373-.736v-6.782c0-.157-.048-.305-.068-.427-.02-.123-.014-.192.03-.237.001 0 .02-.01.08-.002.062.01.148.036.231.063.084.027.164.057.254.06a.226.226 0 0 0 .155-.045.221.221 0 0 0 .074-.17c0-.33-.177-.595-.352-.837-.174-.243-.35-.47-.408-.705-.038-.152-.051-.504-.043-.926.008-.423.035-.925.06-1.418.026-.494.05-.977.053-1.37a6.129 6.129 0 0 0-.011-.511c-.011-.142-.023-.246-.069-.338-.098-.197-.269-.316-.418-.426-.149-.11-.277-.208-.338-.33.007.013-.004-.012-.01-.049a2.239 2.239 0 0 1-.013-.15 9.476 9.476 0 0 1-.018-.486c-.006-.392-.002-.897.006-1.412.017-1.03.05-2.091.05-2.38 0-.72.01-1.087.01-1.294.001-.104 0-.167-.009-.225a.432.432 0 0 0-.055-.148c-.044-.076-.096-.138-.207-.43-.11-.293-.272-.802-.5-1.715-.112-.447.004-.955.004-1.48v-4.535c0-.735.19-1.524-.004-2.3-.059-.235-.26-.356-.425-.46-.166-.104-.296-.195-.333-.305-.141-.425.006-.939.006-1.47V88.356c0-.232.055-.493.084-.761a1.686 1.686 0 0 0-.074-.62h.615v-.001c.27.022.525.086.797-.004.239-.08.343-.307.444-.479.05-.086.099-.16.144-.207.02-.02.038-.017.055-.027-.009.034-.013.055-.027.101-.027.083-.059.177-.073.274-.014.097-.01.218.078.306.134.134.317.128.465.104.148-.024.29-.066.385-.066.389 0 1.413-.034 2.398-.051.493-.009.973-.015 1.356-.008.191.003.359.01.488.02.13.009.228.025.252.033.119.04.211.157.317.31.105.153.219.337.421.438l.02.008.01.003c.005.002.01.002.013.002l.016.002.037.004.121.006c.101.005.243.01.412.016.338.01.785.023 1.24.03.456.006.916.007 1.282 0 .183-.005.341-.011.465-.02.061-.005.115-.011.16-.018.045-.007.078-.01.123-.033.214-.107.315-.323.416-.486a1 1 0 0 1 .146-.196c.047-.043.081-.06.133-.06.052 0 .089.017.135.06a1 1 0 0 1 .144.196c.102.163.204.379.418.486.077.038.128.036.22.043.09.007.207.011.339.013.265.005.6.003.941-.003.684-.013 1.398-.038 1.584-.038h10.582v-.265h-10.582c-.208 0-.91.024-1.59.037-.34.006-.672.01-.931.006a5.53 5.53 0 0 1-.322-.014c-.082-.006-.149-.03-.121-.016-.105-.052-.203-.214-.311-.388a1.18 1.18 0 0 0-.191-.25.465.465 0 0 0-.315-.131.46.46 0 0 0-.312.13 1.179 1.179 0 0 0-.192.25c-.108.175-.206.337-.31.39.013-.007-.011.004-.045.01a8.461 8.461 0 0 1-.588.033c-.36.007-.82.004-1.274-.003a73.286 73.286 0 0 1-1.644-.043 5.904 5.904 0 0 1-.113-.005H95.3c-.113-.06-.207-.19-.313-.344-.108-.157-.234-.337-.453-.41a1.32 1.32 0 0 0-.314-.047 9.583 9.583 0 0 0-.502-.02 41.441 41.441 0 0 0-1.365.006c-.988.018-2.022.053-2.395.053-.157 0-.306.048-.428.068-.122.02-.19.016-.234-.029 0 0-.013-.02-.004-.082.009-.061.035-.145.062-.229.027-.083.058-.163.061-.253a.225.225 0 0 0-.045-.155.219.219 0 0 0-.168-.076z" overflow="visible"/><path style="line-height:normal;font-variant-ligatures:normal;font-variant-position:normal;font-variant-caps:normal;font-variant-numeric:normal;font-variant-alternates:normal;font-feature-settings:normal;text-indent:0;text-align:start;text-decoration-line:none;text-decoration-style:solid;text-decoration-color:#000;text-transform:none;text-orientation:mixed;shape-padding:0;isolation:auto;mix-blend-mode:normal" d="M98.965 128.217a1.915 1.915 0 0 0-.354.008 3.669 3.669 0 0 0-.326.043l-.053.012c-.015.004-.023.003-.056.021l-.014.01-.021.018-.026.044-.006.077.034.06.033.026a.283.283 0 0 0 .035.014c.033.008.043.006.062.006h.202c-.088.033-.147.088-.243.119-.252.08-.513.188-.732.373h-9.053v.264h8.97c.006.005.004.017.009.021.063.052.105.048.156.053.101.01.228.004.353-.008a4 4 0 0 0 .327-.043l.052-.012c.016-.004.024-.003.057-.021l.016-.01.021-.02.026-.043.003-.076-.033-.063-.033-.023a.28.28 0 0 0-.035-.014c-.033-.008-.043-.006-.063-.006h-.205c.09-.034.149-.09.246-.121.252-.081.514-.186.733-.371h11.322v-.264H99.131c-.005-.006-.005-.017-.01-.021-.063-.052-.106-.048-.156-.053zm52.982-40.748c-.056 0-.072.013-.105.025a1.82 1.82 0 0 0-.117.049c-.09.04-.205.096-.338.164-.268.136-.61.318-.955.502-.347.184-.697.37-.98.516-.143.072-.27.133-.368.18a1.779 1.779 0 0 1-.193.08c-.428.106-.914.005-1.414-.005-.095-.106-.187-.262-.297-.416-.12-.168-.285-.34-.526-.34-.292 0-.522.182-.683.438-.162.256-.276.595-.373.973-.196.755-.326 1.675-.547 2.365-.11.345-.245.63-.405.805-.16.174-.327.249-.578.203-.502-.092-1.347-.77-2.6-2.461l-.238-.322v17.031c0 .521.094 1.026.002 1.486-.073.366-.254.726-.425 1.1-.171.373-.332.762-.332 1.193 0 .432.16.822.332 1.195.17.374.352.734.425 1.1.092.46-.002.965-.002 1.486v6.047c0 .526.116 1.033.004 1.48a1.708 1.708 0 0 1-.08.194c-.046.099-.107.223-.18.365-.144.284-.331.635-.515.98-.184.347-.366.69-.502.958a8.762 8.762 0 0 0-.164.338 1.78 1.78 0 0 0-.049.115c-.012.033-.025.05-.025.105 0 .661.102 1.037.265 1.27.164.233.388.3.532.35a.494.494 0 0 1 .152.074c.03.025.05.052.06.13.023.158-.028.507-.245 1.159-.038.113-.166.204-.327.308-.16.105-.354.223-.43.448-.058.177-.06.446-.052.797.008.35.033.77.057 1.185.023.415.045.826.048 1.154.002.165 0 .307-.01.418a.855.855 0 0 1-.037.207c-.052.105-.214.203-.388.311a1.179 1.179 0 0 0-.25.191.465.465 0 0 0-.131.315.46.46 0 0 0 .13.312c.074.08.163.138.25.192.175.108.337.206.39.31-.007-.013.016.068.025.172.009.104.016.243.02.404.005.323 0 .737-.009 1.159-.017.843-.05 1.712-.05 1.986v24.094a.155.155 0 0 0-.009.015c-.008.018-.015.033-.021.051a1.792 1.792 0 0 0-.065.295 1.351 1.351 0 0 0-.011.356.38.38 0 0 0 .054.164c.01.014.036.015.051.029v.617c-.01.007-.027.005-.037.014a.374.374 0 0 0-.094.133.768.768 0 0 0-.058.312c0 .11.016.219.058.315a.37.37 0 0 0 .094.13c.01.008.026.007.037.014 0 .184-.008.841-.011 1.524a104.98 104.98 0 0 0 .004 1.296 1.158 1.158 0 0 0 .01.153c0 .005.008.019.008.02l.008.017.021.027a.343.343 0 0 0 .274.088c.086-.007.164-.032.236-.055a1.18 1.18 0 0 1 .182-.045c.022-.002.024.004.033.006a19.32 19.32 0 0 1 .006.36c0 .262 0 .612-.002.97-.004.674-.011 1.307-.012 1.508a.493.493 0 0 0-.03.068 1.784 1.784 0 0 0-.064.296c-.017.117-.026.24-.012.353a.38.38 0 0 0 .055.166c.01.015.036.016.05.03v8.994c-.245.722-.755 1.443-.755 2.287 0 .053.016.111.053.156a.241.241 0 0 0 .133.078c.09.02.17.007.255-.01.171-.034.366-.092.448-.092h6.047c.145 0 .282-.03.402-.043.12-.013.217-.011.295.027.09.046.209.25.322.446a.952.952 0 0 0 .201.265.334.334 0 0 0 .352.045c.31-.155.409-.483.486-.785.078-.301.143-.59.303-.75.063-.063.132-.086.23-.09.1-.003.224.02.358.051.267.063.575.17.873.07.57-.19 1.013-.589 1.512-.755.08-.027.187-.014.316.006.13.02.28.047.44-.006.558-.186 1.036-.518 1.529-.764.479-.24 1.109-.341 1.547-.78.203-.203.3-.393.279-.576-.01-.095-.102-.138-.162-.205.535.028.897.063 2.056.063h.038l.03-.018c.43-.257.658-.694.86-1.127.202-.432.383-.866.678-1.162.176-.176.416-.28.681-.379.266-.098.556-.189.811-.36.58-.385 1.061-.966 1.54-1.536.477-.57.95-1.131 1.483-1.486.214-.143.481-.231.754-.333.274-.101.555-.218.778-.44.483-.484.585-.947.7-1.317.116-.371.228-.651.778-.926.048-.024.16-.004.303.033a.919.919 0 0 0 .23.04.358.358 0 0 0 .256-.099.37.37 0 0 0 .104-.248.856.856 0 0 0-.031-.23c-.034-.143-.06-.269-.04-.33.167-.5.566-.942.756-1.512.053-.16.026-.31.006-.44-.02-.129-.032-.236-.006-.316.174-.52.433-1.02.74-1.48.023-.033.14-.16.286-.303.146-.143.326-.314.504-.48.177-.167.35-.328.482-.457a4.24 4.24 0 0 0 .164-.168.825.825 0 0 0 .053-.065c.015-.02.031-.029.043-.086.204-1.022.002-2.06.002-3.05v-7.559c0-.487.103-1.01-.002-1.537-.083-.416-.278-.792-.445-1.158-.168-.366-.31-.72-.31-1.084 0-.043.019-.072.073-.118.055-.045.142-.094.237-.144.094-.05.195-.102.283-.176a.422.422 0 0 0 .164-.318c0-.325-.154-.598-.32-.846-.167-.248-.35-.48-.444-.717-.29-.724-.497-1.487-.748-2.242.005-.22.089-.49-.006-.773-.192-.577-.63-1.005-.754-1.502-.05-.204-.003-.453.041-.717.044-.265.084-.553-.05-.822a.255.255 0 0 0-.131-.122.318.318 0 0 0-.15-.015c-.094.01-.178.042-.259.07a1.12 1.12 0 0 1-.199.057h-.017c-.075-.16-.015-.413.058-.69a1.76 1.76 0 0 0 .074-.43.574.574 0 0 0-.158-.417.243.243 0 0 0-.226-.063.322.322 0 0 0-.159.121c-.079.1-.142.228-.205.354a2.184 2.184 0 0 1-.172.306c-.096-.115-.102-.28-.078-.478l.002.002a.179.179 0 0 0 .143-.057c.051-.063.047-.105.053-.156.01-.101.004-.228-.008-.353a3.669 3.669 0 0 0-.043-.327l-.012-.052c-.004-.016-.003-.024-.022-.057l-.01-.016-.017-.02-.045-.026-.076-.004-.06.033-.026.033-.01.021-.004.014c-.008.033-.006.043-.006.063 0 .042-.02.105-.026.152-.026-.072-.07-.117-.095-.193-.09-.279-.182-.58-.41-.809-.039-.038-.074-.082-.165-.078a.175.175 0 0 0-.117.06.187.187 0 0 0-.037.08c-.022.096-.008.184.008.301.028.201.077.447.111.653-.027-.045-.034-.045-.068-.104a18.05 18.05 0 0 1-.463-.877.283.283 0 0 1 0-.13c.012-.07.037-.154.06-.237.024-.083.049-.161.044-.252a.225.225 0 0 0-.059-.146.231.231 0 0 0-.164-.065c-.146 0-.254.095-.328.194-.075.098-.13.214-.182.318a1.248 1.248 0 0 1-.14.236.108.108 0 0 1-.034.028l-.011-.006c-.194-.097-.275-.324-.35-.616-.075-.292-.134-.632-.373-.87-.211-.212-.439-.28-.63-.218-.193.063-.327.219-.446.377-.12.16-.222.33-.315.442a.514.514 0 0 1-.119.111c-.03.017-.035.018-.052.012-.385-.128-.611-.548-.887-.893.108-.155.22-.317.22-.494a.255.255 0 0 0-.078-.176.391.391 0 0 0-.142-.086.934.934 0 0 0-.334-.05.794.794 0 0 0-.318.062.27.27 0 0 0-.13.107.225.225 0 0 0-.003.202c.085.17.22.326.334.492-.06.025-.128.095-.174.08-.293-.098-.506-.348-.723-.645-.216-.296-.43-.635-.758-.853-.329-.22-.551-.35-.71-.416a.488.488 0 0 0-.215-.05.202.202 0 0 0-.116.038.197.197 0 0 0-.07.108.312.312 0 0 0 .02.185c.019.058.045.117.078.182.065.13.15.278.232.426.081.147.158.294.201.412.044.117.037.196.037.195 0 0 .006 0-.02.004a.444.444 0 0 1-.161-.012c-.163-.035-.427-.136-.803-.324-.193-.097-.273-.323-.348-.615-.075-.292-.134-.633-.373-.871-.133-.133-.316-.128-.465-.104-.148.025-.29.065-.384.065h-13.43c.02-.066.073-.125.072-.192a1.752 1.752 0 0 0-.072-.43c-.074-.28-.139-.539-.059-.699a.54.54 0 0 1 .143-.195c.037-.027.056-.028.09-.021.066.013.193.111.318.26.126.147.256.332.387.486.131.153.259.298.455.298a.22.22 0 0 0 .17-.074.223.223 0 0 0 .043-.154c-.003-.09-.032-.17-.059-.254a1.614 1.614 0 0 1-.062-.23c-.01-.062 0-.08.002-.08.011-.012.018-.018.062-.014a1 1 0 0 1 .184.045c.072.022.15.049.236.056a.345.345 0 0 0 .274-.088.343.343 0 0 0 .087-.273c-.007-.087-.032-.166-.054-.238a1.024 1.024 0 0 1-.045-.182c-.004-.044 0-.051.012-.062.045-.045.112-.052.234-.032l.281.045c-.012.116-.032.266-.05.414-.012.094-.024.17-.009.252a.17.17 0 0 0 .133.14c.093.017.133-.03.166-.064.239-.238.298-.581.373-.873.075-.292.156-.518.35-.615.016-.008.01-.004.012-.004 0 0 .014.005.033.025.037.041.088.135.14.239.052.103.108.217.182.316s.182.193.328.193c.228 0 .442-.12.606-.283.163-.163.283-.376.283-.603a.177.177 0 0 0-.041-.108.175.175 0 0 0-.069-.047.342.342 0 0 0-.117-.025 1.835 1.835 0 0 0-.27.01c-.155.013-.309.027-.445.035.134-.1.34-.24.87-.504a.946.946 0 0 1 .343-.095c.116-.007.206.017.258.07-.004-.004.016.039.012.117-.005.078-.025.18-.047.272-.022.092-.045.17-.053.242a.186.186 0 0 0 .016.111c.005.01.01.022.021.033.01.012.04.031.041.032.001 0 .033.013.05.015a.157.157 0 0 0 .094-.022c.024-.014.038-.029.054-.044.228-.23.32-.53.41-.809.09-.278.176-.533.345-.703a.434.434 0 0 1 .286-.094c.117 0 .23.04.285.094 0 0 .01.02.002.082a1.625 1.625 0 0 1-.063.228c-.027.084-.057.164-.06.254a.23.23 0 0 0 .045.157.217.217 0 0 0 .168.074c.408 0 .658-.061.81-.21.152-.147.155-.357.12-.534-.036-.178-.104-.353-.132-.498-.027-.146-.022-.236.051-.309.054-.054.168-.094.285-.094.118 0 .231.04.285.094-.003-.003.012.03.004.102a1.816 1.816 0 0 1-.056.257c-.025.09-.051.167-.057.25-.003.042-.009.11.065.166a.166.166 0 0 0 .117.032.235.235 0 0 0 .08-.026c.41-.205.663-.615.969-.968.146.114.302.226.484.226.232 0 .415-.14.553-.305a2.69 2.69 0 0 0 .32-.523c.05-.1.042-.203.026-.297-.017-.093-.047-.184-.069-.262-.01-.037-.01-.05-.015-.078.022.016.037.014.068.055.057.076.115.188.172.299.057.11.108.217.185.3a.269.269 0 0 0 .166.094.252.252 0 0 0 .2-.078.543.543 0 0 0 .138-.441c-.013-.152-.063-.303-.107-.447a2.054 2.054 0 0 1-.094-.391.262.262 0 0 1 .053-.195c.04.052.094.156.15.271.06.12.12.248.201.35.041.05.087.099.153.129s.155.03.226-.006c.3-.15.441-.444.54-.739.071-.215.133-.413.2-.607.062.09.118.168.188.265.12.169.285.338.526.338.24 0 .404-.17.525-.338.12-.168.22-.353.324-.457.24-.24.555-.45.772-.775.177-.266.24-.594.324-.873.084-.28.18-.493.38-.594.014-.007.005-.005.007-.004s.018.01.039.035c.042.051.095.157.148.268.054.111.107.23.184.328a.414.414 0 0 0 .146.123.3.3 0 0 0 .217.012c.376-.125.645-.4.881-.693.236-.294.444-.612.682-.85l.755-.756c.248-.248.427-.514.659-.666a.3.3 0 0 0 .136.02c.064-.007.127-.031.19-.051l.105.027c.083.023.16.048.25.043a.229.229 0 0 0 .147-.06.22.22 0 0 0-.039-.342.26.26 0 0 0-.162-.024c-.097.011-.193.047-.287.078l-.016.004c-.029-.007-.054-.016-.084-.021-.014-.003-.03.006-.045.004v-.002a.911.911 0 0 1 .186-.149c.156-.102.363-.204.49-.394.17-.255.26-.543.36-.809.098-.265.202-.506.378-.681.16-.16.449-.228.75-.305.302-.077.632-.176.787-.486a.276.276 0 0 0 .012-.22.372.372 0 0 0-.121-.15c-.097-.077-.216-.132-.33-.187a1.707 1.707 0 0 1-.28-.154.144.144 0 0 1-.039-.043l.002-.002c.097-.194.324-.273.616-.348.291-.075.632-.134.87-.373.019-.018.039-.035.053-.082a.133.133 0 0 0 .006-.068l-.008-.028a.552.552 0 0 0-.029-.047.146.146 0 0 0-.035-.027c-.044-.025-.067-.021-.09-.021a.416.416 0 0 0-.064.004c-.087.01-.196.04-.307.064-.045.01-.072.012-.113.02.149-.208.32-.4.547-.577.286-.222.599-.448.814-.771.097-.146.093-.31.074-.453-.019-.142-.053-.274-.053-.375v-11.324c.39-.408.756-.939.756-1.528 0-.467-.057-.786-.166-1.02a1.11 1.11 0 0 0-.435-.478c-.329-.21-.654-.29-.924-.83a.946.946 0 0 1-.096-.344c-.007-.115.018-.207.07-.26-.003.005.04-.016.118-.011.078.005.179.025.271.047.092.022.171.044.242.053.018.002.035.005.061.002a.16.16 0 0 0 .084-.038c.012-.01.03-.04.031-.04 0-.002.014-.033.016-.05a.17.17 0 0 0-.022-.096c-.014-.024-.03-.036-.045-.052-.234-.235-.56-.307-.845-.387-.286-.08-.524-.162-.649-.35-.112-.168-.117-.38-.084-.632.03-.228.085-.482.096-.732.104-.093.304-.198.482-.317a.826.826 0 0 0 .246-.223.359.359 0 0 0 .024-.35c-.155-.31-.486-.408-.787-.485-.302-.078-.59-.145-.75-.305-.017-.017-.02-.027-.02-.067a.76.76 0 0 1 .03-.166c.035-.134.104-.31.015-.488-.098-.197-.269-.316-.418-.426-.149-.109-.277-.208-.338-.33-.032-.065-.023-.16 0-.289.024-.128.063-.284.008-.449-.1-.298-.3-.544-.463-.78-.117-.17-.161-.332-.207-.497.187-.027.378-.06.543-.06.022 0 .038 0 .069-.009a.155.155 0 0 0 .07-.043l.023-.035.012-.045-.004-.043-.014-.03a.207.207 0 0 0-.025-.036.212.212 0 0 0-.049-.033.406.406 0 0 0-.05-.02 1.79 1.79 0 0 0-.295-.064 1.355 1.355 0 0 0-.356-.014.384.384 0 0 0-.164.055c-.038.024-.054.079-.072.129-.22.018-.425.02-.596-.065.016.008.005.012-.002-.043a1.236 1.236 0 0 1 .006-.252c.021-.213.07-.494.084-.777.015-.283 0-.573-.13-.81-.037-.067-.16-.06-.216-.112.064-.006.137-.021.198-.021a.36.36 0 0 0 .056-.004c.01-.002.022-.003.041-.012a.226.226 0 0 0 .018-.01l.02-.015.023-.028.017-.04.004-.05-.011-.039-.016-.025-.014-.016c-.017-.017-.03-.022-.039-.027a.259.259 0 0 0-.047-.02 1.464 1.464 0 0 0-.254-.047 1.756 1.756 0 0 0-.336-.007c-.076.006-.144.044-.212.078-.003 0-.003-.004-.006-.004a.266.266 0 0 0-.174.07c-.188.01-.374.019-.524-.056-.245-.123-.397-.225-.47-.297a.227.227 0 0 1-.055-.074s.039-.038.127-.067c.087-.028.21-.051.34-.066h.756c.064 0 .11-.002.142-.004.017-.001.03-.001.045-.004.004 0 .008-.003.014-.004a.743.743 0 0 0 .023-.006l.022-.012.03-.027.03-.072-.017-.082-.034-.035-.021-.014-.024-.01c-.01-.004-.018-.005-.025-.006a2.052 2.052 0 0 0-.156-.014 5.999 5.999 0 0 0-.738.024h-6.85c-.784 0-1.562.23-2.227.008-.1-.033-.194-.183-.298-.362a1.27 1.27 0 0 0-.184-.26.446.446 0 0 0-.315-.142zm0 .265c.05 0 .08.017.125.063.046.046.095.121.145.207.1.171.205.399.443.478.77.257 1.583.008 2.31.008h6.126c-.008.012-.027.01-.034.024a.272.272 0 0 0-.006.2.466.466 0 0 0 .12.173c.11.107.28.214.539.343.17.086.352.064.53.065-.014.065-.036.127-.036.195 0 .11.016.219.058.315a.363.363 0 0 0 .092.13.266.266 0 0 0 .17.067.223.223 0 0 0 .17-.076.225.225 0 0 0 .045-.155c-.003-.09-.034-.17-.06-.253a1.85 1.85 0 0 1-.055-.2l.04-.004c.173.037.338.075.403.194.089.16.111.406.098.668-.014.262-.06.537-.082.765a1.475 1.475 0 0 0-.008.309c.01.093.044.199.146.25.248.124.512.117.768.092.054.225.122.447.25.63.17.246.349.477.428.714.024.073.007.183-.018.316-.025.133-.055.295.025.455.099.197.27.317.418.426.15.11.277.21.338.332.024.047.002.16-.035.303a.919.919 0 0 0-.04.23.36.36 0 0 0 .1.256c.24.239.58.298.872.373.291.075.518.156.615.35.02.042.018.045-.008.084a.653.653 0 0 1-.17.148c-.165.11-.397.214-.553.37l-.039.038v.055c0 .227-.067.498-.103.771-.037.274-.042.564.125.815.187.282.506.377.798.459.07.02.108.054.174.074-.07.007-.14-.002-.199.057-.126.125-.158.3-.148.46.01.162.059.32.123.448.305.61.736.753 1.02.933.14.09.25.185.335.368.085.183.143.463.143.908 0 .349-.27.66-.493.974v-.218c0-.02.002-.03-.006-.063a.048.048 0 0 0-.004-.015l-.01-.02-.023-.033-.062-.033-.077.004-.043.025-.02.022s-.006.011-.01.015c-.018.033-.017.04-.02.057a3.709 3.709 0 0 0-.055.379 1.979 1.979 0 0 0-.008.353c.005.05 0 .093.052.156.004.005.017.003.022.008v11.241c0 .15.037.29.053.41s.011.207-.032.271c-.18.27-.465.484-.756.71-.29.225-.588.464-.763.816a.188.188 0 0 0-.022.115.181.181 0 0 0 .078.115c.02.013.032.005.05.01-.03.008-.045.022-.075.03-.301.077-.632.175-.787.486a.281.281 0 0 0-.012.22.372.372 0 0 0 .121.15c.097.078.216.132.33.186.115.055.224.11.28.155.027.022.038.04.039.043l-.002.002c-.097.193-.324.274-.615.35-.292.074-.635.134-.874.372-.222.223-.337.504-.439.778-.101.273-.19.54-.332.754-.07.106-.242.206-.414.318a1.114 1.114 0 0 0-.242.2.517.517 0 0 0-.092.234c-.331.191-.528.52-.748.74l-.756.756c-.266.266-.476.591-.701.87-.225.28-.457.51-.758.61-.013.004-.008.004-.018 0a.196.196 0 0 1-.052-.05 1.697 1.697 0 0 1-.155-.278c-.053-.112-.106-.227-.183-.32a.356.356 0 0 0-.15-.116.28.28 0 0 0-.215.016c-.304.152-.428.457-.518.754-.09.296-.154.6-.289.803-.178.267-.476.47-.74.734-.148.148-.248.344-.354.49-.105.147-.193.229-.308.229-.116 0-.206-.082-.31-.229-.106-.146-.204-.342-.352-.49l-.131-.129-.082.164c-.138.276-.2.595-.291.867-.091.273-.2.484-.405.586h-.002a.213.213 0 0 1-.052-.05 1.916 1.916 0 0 1-.172-.303c-.059-.12-.114-.24-.19-.334a.288.288 0 0 0-.158-.111.242.242 0 0 0-.217.066.543.543 0 0 0-.138.441c.013.152.06.303.105.448a2.1 2.1 0 0 1 .096.392c.008.098-.014.155-.057.207a1.511 1.511 0 0 1-.133-.226c-.056-.11-.118-.233-.197-.338-.079-.105-.186-.205-.338-.205a.23.23 0 0 0-.164.062.228.228 0 0 0-.058.149c-.005.09.02.167.043.25.023.082.048.167.06.236a.283.283 0 0 1 0 .13 2.528 2.528 0 0 1-.287.473c-.112.134-.226.211-.35.211-.092 0-.197-.079-.298-.148.119-.16.328-.24.416-.416a.229.229 0 0 0-.004-.203.27.27 0 0 0-.13-.108.79.79 0 0 0-.318-.06.928.928 0 0 0-.334.049.398.398 0 0 0-.144.086.253.253 0 0 0-.076.175c0 .182.112.339.226.485-.227.266-.43.544-.724.724.02-.074.04-.149.048-.228.011-.104.01-.224-.082-.317a.657.657 0 0 0-.47-.173.657.657 0 0 0-.471.173c-.153.154-.16.365-.125.545.034.18.102.354.13.498.03.144.025.23-.042.295-.06.058-.259.109-.559.121.008-.035.013-.068.031-.125.027-.082.059-.176.073-.273.014-.097.01-.216-.078-.305a.657.657 0 0 0-.471-.174.657.657 0 0 0-.47.174c-.23.23-.324.53-.413.809-.023.073-.067.116-.092.185-.002-.083.003-.168-.066-.238-.126-.126-.3-.158-.461-.148-.161.01-.32.059-.447.123-.63.315-.942.495-1.09.636a.3.3 0 0 0-.086.124c-.007.02.012.045.016.072a.33.33 0 0 0-.147-.098.288.288 0 0 0-.205.022c-.31.155-.409.485-.486.787-.025.095-.07.149-.096.238.005-.05.018-.108.018-.15v-.133h-.133c-.095 0-.235-.04-.383-.065-.148-.024-.334-.03-.467.104a.343.343 0 0 0-.088.273c.007.087.033.164.055.237.022.072.041.138.045.181.004.044 0 .053-.012.065-.011.011-.019.015-.062.011a1.05 1.05 0 0 1-.182-.044 1.051 1.051 0 0 0-.238-.055.345.345 0 0 0-.274.088c-.088.088-.09.207-.076.304.014.097.046.191.072.274.011.033.012.046.02.074-.049-.03-.094-.047-.176-.143-.118-.138-.25-.322-.387-.484-.137-.161-.276-.311-.468-.35a.386.386 0 0 0-.295.067.762.762 0 0 0-.227.29c-.145.292-.03.612.041.886.036.136.064.264.065.365a.289.289 0 0 1-.067.19h-.043a.92.92 0 0 1-.115-.159c-.057-.097-.12-.212-.191-.318a.732.732 0 0 0-.268-.266 1.602 1.602 0 0 0-.508-.15.554.554 0 0 0-.267.023.282.282 0 0 0-.172.246c0 .152.102.26.207.338.105.079.228.141.338.197.067.035.102.06.148.088h-1.316c-.082 0-.277-.057-.448-.091a.583.583 0 0 0-.255-.012c-.028.006-.055.032-.082.05a2.066 2.066 0 0 0-.34-.29 1 1 0 0 1-.196-.147c-.043-.046-.06-.08-.06-.133 0-.052.017-.088.06-.134.044-.047.114-.094.196-.145.163-.101.379-.204.486-.418a.805.805 0 0 0 .065-.305 5.42 5.42 0 0 0 .01-.443c-.004-.338-.026-.75-.05-1.166-.022-.415-.046-.832-.054-1.176-.008-.343.01-.627.037-.707.038-.113.164-.204.324-.308.161-.105.357-.223.432-.448.222-.664.294-1.028.258-1.28a.47.47 0 0 0-.15-.294.694.694 0 0 0-.239-.123c-.155-.054-.285-.087-.4-.252-.116-.164-.217-.484-.217-1.117 0 .034 0 .01.008-.014.009-.023.022-.056.04-.097.039-.083.094-.197.161-.329.134-.264.316-.605.5-.95.184-.347.37-.698.516-.985.073-.144.137-.272.185-.375.048-.104.081-.177.098-.242.133-.53.004-1.06.004-1.543v-6.048c0-.486.102-1.01-.004-1.538-.083-.415-.278-.79-.445-1.156-.168-.367-.307-.721-.307-1.086 0-.366.139-.718.307-1.084.167-.366.362-.743.445-1.159.106-.528.004-1.05.004-1.537V90.983c1.113 1.448 1.912 2.173 2.525 2.285a.87.87 0 0 0 .82-.285c.205-.224.345-.54.462-.903.232-.726.363-1.647.552-2.378.095-.366.206-.684.34-.897.135-.213.271-.314.46-.314.115 0 .204.08.31.226.105.147.203.342.351.49l.04.04h.054c.483 0 1.015.128 1.545-.004.066-.017.139-.05.242-.098.104-.048.23-.112.373-.186.287-.146.638-.331.985-.515.346-.184.687-.366.95-.5.133-.067.246-.123.329-.16a.821.821 0 0 1 .1-.041c.023-.01.047-.008.013-.008zm1.174 40.641a.582.582 0 0 1 .176.031c-.07.131-.226.192-.315.315-.066-.098-.14-.2-.142-.29a.135.135 0 0 1 .043-.023.729.729 0 0 1 .238-.033zm-5.129 3.16a.648.648 0 0 1-.164.33c-.125.125-.29.205-.418.205-.032 0-.066-.02-.117-.088a1.983 1.983 0 0 1-.156-.277c-.028-.055-.065-.103-.096-.156.02.007.042.024.06.027.04.008.08.01.124.01.175.002.408-.029.6-.045.069-.006.119-.006.167-.006zm-6.35 2.174c.138.015.324.075.419.123a.571.571 0 0 1 .166.178c.06.09.12.2.181.303.006.01.014.015.02.025h-.153a.303.303 0 0 0-.078-.139c-.083-.077-.19-.129-.3-.185-.111-.057-.225-.115-.301-.172-.077-.057-.1-.1-.1-.127h.002a.401.401 0 0 1 .145-.006zm-1.646.787a.475.475 0 0 1 .113.01c.09.018.204.038.313.06-.002.03-.01.06-.006.086.012.1.046.194.076.282.018.052.024.082.035.12a.646.646 0 0 1-.338-.165.65.65 0 0 1-.193-.393zm16.914.037c.122-.02.19-.014.235.031.16.16.227.449.304.75.078.302.176.63.487.786.386.193.658.301.863.345a.68.68 0 0 0 .267.014.294.294 0 0 0 .198-.129c.081-.136.037-.278-.016-.422a3.43 3.43 0 0 0-.217-.447c-.083-.151-.167-.298-.226-.416-.02-.041-.032-.072-.045-.104l.006.002c.125.053.343.178.666.393.265.177.469.483.691.787.222.304.47.613.854.74.144.049.258-.072.385-.142.303.393.66.742 1.126.898a.334.334 0 0 0 .268-.031.72.72 0 0 0 .191-.172c.114-.136.217-.307.325-.451.108-.144.22-.255.314-.285.094-.03.19-.019.361.152.16.16.228.449.305.75.078.302.176.632.486.787.064.032.14.04.206.022a.338.338 0 0 0 .154-.102c.078-.086.129-.193.181-.299.053-.105.106-.207.157-.275.025-.034.04-.032.058-.045-.006.03-.005.043-.015.082-.022.078-.05.168-.067.262a.454.454 0 0 0 .024.295c.197.394.35.685.468.892.12.207.2.328.274.405.037.038.073.085.166.08a.174.174 0 0 0 .117-.065.187.187 0 0 0 .033-.08c.02-.094.005-.182-.011-.299-.024-.168-.062-.363-.094-.547.054.12.129.213.174.352.06.185.171.361.273.539-.015.074-.023.134-.035.209-.047.283-.05.594.172.816a.243.243 0 0 0 .226.063.322.322 0 0 0 .159-.121c.079-.1.142-.228.205-.354.063-.126.127-.248.174-.306l.004-.004a.287.287 0 0 1 .068.195c0 .1-.03.229-.066.365-.072.273-.185.592-.04.883a.26.26 0 0 0 .131.121c.054.02.104.02.15.016.094-.01.178-.042.259-.07a1.12 1.12 0 0 1 .199-.057h.017c.086.18.07.4.028.652-.043.257-.109.54-.037.824.149.596.593 1.03.757 1.522.063.186-.006.433-.006.713v.021l.006.022c.25.75.46 1.526.76 2.275.115.287.31.53.469.766.159.236.277.458.277.697 0 .042-.016.071-.07.117a1.467 1.467 0 0 1-.236.143c-.095.05-.196.102-.284.176a.428.428 0 0 0-.166.32c0 .431.161.82.332 1.193.172.374.353.734.426 1.1.092.46-.002.965-.002 1.486v7.559c0 1.02.189 2.033.002 2.984a3.978 3.978 0 0 1-.186.195c-.127.126-.299.29-.476.456-.177.166-.36.336-.51.482-.149.146-.26.255-.32.346a6.522 6.522 0 0 0-.771 1.543c-.053.159-.024.312-.004.441.02.13.03.235.004.314-.167.5-.566.944-.756 1.514-.06.178.004.342.035.473a.677.677 0 0 1 .023.16c0 .038-.007.052-.025.07-.016.017-.03.022-.068.022a.791.791 0 0 1-.166-.031c-.135-.036-.31-.105-.489-.016-.607.304-.791.698-.912 1.086-.12.388-.195.77-.633 1.207-.175.176-.417.282-.683.38-.266.1-.554.19-.809.36-.58.386-1.063.967-1.54 1.537-.479.57-.95 1.131-1.483 1.487-.214.142-.483.23-.756.332-.274.101-.555.218-.778.441-.347.347-.532.812-.73 1.236-.195.416-.404.778-.742.99-1.465 0-2.151-.039-2.625-.077-.19-.036-.391-.11-.533-.11-.067 0-.123.003-.17.01a.299.299 0 0 0-.07.016.158.158 0 0 0-.085.074l-.013.076.01.037s.008.02.013.028c.01.015.02.024.03.03.017.015.03.02.043.026.025.011.05.017.078.024.057.013.135.026.244.039.066.007.385.007.475.013.118.027.243.02.328.065.113.06.164.122.172.187.007.066-.029.185-.204.36-.359.359-.95.466-1.478.73-.515.258-.983.578-1.494.748-.08.027-.187.016-.317-.004-.129-.02-.28-.05-.44.004-.57.19-1.012.592-1.51.758-.181.06-.45-.012-.73-.078a1.616 1.616 0 0 0-.425-.057.6.6 0 0 0-.41.166c-.239.239-.296.58-.371.871-.075.292-.156.519-.35.616-.04.02-.029.018-.064-.012a.83.83 0 0 1-.141-.193c-.105-.182-.203-.437-.432-.551a.771.771 0 0 0-.441-.055c-.139.015-.269.041-.375.041h-6.047c-.17 0-.354.069-.498.098-.058.011-.093.01-.117.01.01-.732.482-1.428.74-2.201l.008-.02V171.6c.007-.005.017-.002.023-.008a.241.241 0 0 0 .079-.133.585.585 0 0 0-.01-.255c-.035-.171-.092-.366-.092-.448l.01-1.603c.002-.36.003-.71.002-.975a17.564 17.564 0 0 0-.008-.418.337.337 0 0 0-.004-.035c-.001-.006-.001-.012-.004-.022l-.006-.019-.008-.018-.022-.027a.343.343 0 0 0-.273-.088 1.051 1.051 0 0 0-.238.055 1.024 1.024 0 0 1-.182.045c-.022.002-.022-.004-.031-.006l-.002-.043a19.318 19.318 0 0 1-.004-.317c-.001-.262 0-.612.002-.97l.011-1.52c.007-.005.017-.002.024-.008a.237.237 0 0 0 .078-.13.593.593 0 0 0-.01-.259 2.853 2.853 0 0 0-.014-.068l.014-.068a.586.586 0 0 0 .01-.256.242.242 0 0 0-.078-.133c-.007-.006-.016-.003-.024-.008v-.582c.007-.005.017-.002.024-.008a.241.241 0 0 0 .078-.133.585.585 0 0 0-.01-.256c-.034-.17-.092-.363-.092-.445v-24.192c0-.251.034-1.135.05-1.982.01-.423.013-.838.007-1.168v-.006c.159.148.353.266.566.266.06 0 .137-.032.174-.09a.23.23 0 0 0 .031-.158c-.009-.092-.04-.177-.07-.264a1.337 1.337 0 0 1-.062-.227v-.019h.15c.154-.015.32-.012.535.045.14.037.284.073.43.074.11 0 .217-.056.318-.12h.547c.038.023.074.049.125.048.039-.001.068-.029.102-.047h13.595c.157 0 .306-.048.428-.068zm4.445 1.403a.74.74 0 0 1 .239.033.152.152 0 0 1 .043.023c-.002.083-.078.192-.139.297-.09-.132-.247-.185-.318-.322a.588.588 0 0 1 .176-.031z" overflow="visible"/></g></svg>